<?xml version="1.0" encoding="iso-8859-1"?>
<!-- Generator: Adobe Illustrator 19.0.0, SVG Export Plug-In . SVG Version: 6.00 Build 0)  -->
<svg version="1.1" id="Capa_1" xmlns="http://www.w3.org/2000/svg" xmlns:xlink="http://www.w3.org/1999/xlink" x="0px" y="0px"
	 viewBox="0 0 483.2 483.2" style="enable-background:new 0 0 483.2 483.2;" xml:space="preserve">
<path style="fill:#FED14F;" d="M90.4,316.8l-39.2-86.4c-4,1.6-8,2.4-12,2.4c-8.8,0-16-3.2-22.4-9.6c-5.6-5.6-8.8-13.6-8.8-22.4
	c0-17.6,14.4-31.2,31.2-31.2c17.6,0,31.2,14.4,31.2,31.2c0,4.8-0.8,9.6-3.2,13.6c16,4.8,32,7.2,48,7.2c56,0,93.6-32,115.2-59.2
	c-12-4-19.2-15.2-20-28c0-8,3.2-16,8.8-22.4c5.6-5.6,13.6-9.6,21.6-9.6c12.8,0,24,8,28.8,20c3.2,8,2.4,16-0.8,24s-9.6,13.6-17.6,16
	c22.4,26.4,60,58.4,115.2,58.4c16.8,0,32.8-2.4,48.8-8c-2.4-4-3.2-8.8-3.2-13.6c0-17.6,14.4-31.2,31.2-31.2c4,0,8,0.8,11.2,2.4
	c16,6.4,24,24.8,17.6,40.8c-4.8,12-16,19.2-28.8,19.2c-4,0-8-0.8-12-2.4l-40,86.4H249.6h-8H90.4V316.8z"/>
<path style="fill:#FCB129;" d="M455.2,172.8c-4-1.6-7.2-2.4-11.2-2.4c-16.8,0-31.2,13.6-31.2,31.2c0,4.8,0.8,9.6,3.2,13.6
	c-16,4.8-32,7.2-48.8,8c-55.2,0-92.8-32-115.2-58.4c8-3.2,13.6-8.8,17.6-16c3.2-8,4-16,0.8-24c-4.8-12-16-20-28.8-20v213.6h8h143.2
	l40-86.4c4,1.6,8,2.4,12,2.4c12.8,0,24-8,28.8-19.2C479.2,196.8,471.2,179.2,455.2,172.8z"/>
<path style="fill:#63CDF8;" d="M215.2,252.8l26.4,34.4l26.4-34.4l-26.4-34.4L215.2,252.8z"/>
<path d="M248,209.6c-2.4-3.2-8-4-11.2-1.6c-0.8,0.8-0.8,0.8-1.6,1.6l-29.6,37.6c-2.4,3.2-2.4,7.2,0,9.6l29.6,37.6
	c2.4,3.2,8,4,11.2,1.6l1.6-1.6l29.6-37.6c2.4-3.2,2.4-7.2,0-9.6L248,209.6z M241.6,277.6l-19.2-24.8l19.2-24.8l19.2,24.8
	L241.6,277.6z"/>
<path style="fill:#FCB129;" d="M241.6,316.8h151.2v60.8H241.6V316.8z"/>
<path style="fill:#FED14F;" d="M90.4,316.8h151.2v60.8H90.4V316.8z"/>
<path d="M444,162.4c-21.6,0-39.2,17.6-39.2,39.2c0,2.4,0,5.6,0.8,8c-12,3.2-24.8,4.8-37.6,4.8c-39.2-0.8-76.8-18.4-102.4-48
	c10.4-7.2,16-19.2,16-31.2c0-21.6-17.6-39.2-39.2-39.2s-39.2,17.6-39.2,39.2c0,12,5.6,24,16,31.2c-26.4,30.4-64,48-104,48.8
	c-12.8,0-25.6-1.6-37.6-4.8c0.8-2.4,0.8-5.6,0.8-8c0-21.6-17.6-39.2-39.2-39.2S0,180.8,0,202.4s17.6,39.2,39.2,39.2
	c2.4,0,4.8,0,7.2-0.8l36,79.2v59.2c0,4.8,3.2,8,8,8h302.4c4.8,0,8-3.2,8-8V320l36-79.2h7.2c21.6,0,39.2-17.6,39.2-39.2
	S465.6,162.4,444,162.4L444,162.4z M384.8,369.6H98.4v-44.8h286.4V369.6z M444,224.8c-3.2,0-6.4-0.8-8.8-1.6c-4-1.6-8.8,0-10.4,4
	l-37.6,81.6H96l-37.6-81.6c-1.6-4-6.4-5.6-10.4-4c-12,4.8-25.6-0.8-30.4-12.8s0.8-25.6,12.8-30.4c11.2-4.8,24.8,0.8,30.4,12.8
	c0.8,3.2,1.6,5.6,1.6,8.8s-0.8,7.2-2.4,10.4c-1.6,4,0,8.8,4,10.4c0,0,0.8,0,0.8,0.8c16,5.6,33.6,8,50.4,8
	c62.4,0,102.4-38.4,121.6-62.4c2.4-3.2,1.6-8.8-1.6-11.2c-0.8,0-0.8-0.8-1.6-0.8c-12-4.8-17.6-18.4-13.6-30.4
	c4.8-12,18.4-17.6,30.4-13.6c12,4.8,17.6,18.4,13.6,30.4c-2.4,6.4-7.2,11.2-13.6,13.6c-4,1.6-6.4,6.4-4.8,10.4
	c0,0.8,0.8,1.6,0.8,1.6c19.2,23.2,59.2,62.4,121.6,62.4c16.8,0,34.4-2.4,50.4-8c4-1.6,6.4-5.6,5.6-10.4c0-0.8,0-0.8-0.8-0.8
	c-1.6-3.2-2.4-6.4-2.4-10.4c0-12.8,10.4-23.2,23.2-23.2s23.2,10.4,23.2,23.2S456.8,224.8,444,224.8L444,224.8z"/>
<g>
</g>
<g>
</g>
<g>
</g>
<g>
</g>
<g>
</g>
<g>
</g>
<g>
</g>
<g>
</g>
<g>
</g>
<g>
</g>
<g>
</g>
<g>
</g>
<g>
</g>
<g>
</g>
<g>
</g>
</svg>
